<?xml version="1.0" encoding="utf-8"?>
<!-- Generator: Adobe Illustrator 19.2.1, SVG Export Plug-In . SVG Version: 6.00 Build 0)  -->
<svg version="1.1" id="layer" xmlns="http://www.w3.org/2000/svg" xmlns:xlink="http://www.w3.org/1999/xlink" x="0px" y="0px"
	 viewBox="0 0 652 652" style="enable-background:new 0 0 652 652;" xml:space="preserve">
<style type="text/css">
	.st0{fill:#656464;}
	.st1{fill:#6DB229;}
</style>
<path class="st0" d="M44,286.9H32.7v31.2h11c12.1,0,17.4-4.7,17.4-16.5C61.1,289.6,56.5,286.9,44,286.9 M43.2,327.6H32.7v36.2H20.3
	v-86.6h24.3c20.3,0,28.9,4.2,28.9,23.8C73.4,320.2,64.2,327.6,43.2,327.6 M112.7,277.3h12.4v86.6h-12.4V277.3z M220.3,353.2l1.5,9.6
	c-6,1.5-13.2,2.9-20.1,2.9c-22.8,0-33.4-7.7-33.4-44.7c0-36.9,12.3-45.3,34.4-45.3c6.7,0,13.4,1,19.1,2.6l-1.5,9.6
	c-5.2-1.5-11.1-2.4-16.7-2.4c-15.2,0-22.8,5-22.8,35c0,30.4,7.1,35.4,22.8,35.4C209,355.8,214.8,354.7,220.3,353.2 M287.7,285.4
	h-0.1c-2.3,8-23.4,78.5-23.4,78.5h-12.3l27.1-86.6h18.2l27.3,86.6h-13C311.5,363.9,290,293.3,287.7,285.4 M386.5,286.9h-12.2v27.5
	h12.2c14.1,0,17.9-4.5,17.9-14.6C404.4,289.5,400.2,286.9,386.5,286.9 M404.9,363.9l-23-39.9h-7.6v39.9h-12.4v-86.6h25
	c22.2,0,30,4.7,30,22c0,14.2-6.4,21.3-22.2,23.2l24.8,41.4H404.9z M483.2,286.9H471v27.5h12.2c14.1,0,17.9-4.5,17.9-14.6
	C501.2,289.5,496.9,286.9,483.2,286.9 M501.7,363.9L478.6,324H471v39.9h-12.4v-86.6h25c22.2,0,30,4.7,30,22
	c0,14.2-6.4,21.3-22.2,23.2l24.8,41.4H501.7z M586.3,285.3c-14.6,0-21.6,5.4-21.6,35.3c0,29.9,7,35.4,21.6,35.4
	c14.5,0,21.5-5.3,21.5-35.1C607.8,290.9,600.7,285.3,586.3,285.3 M585.8,365.7c-22.3,0-33.5-7.5-33.5-44.7s12.1-45.6,34.4-45.6
	c22.4,0,33.6,7.6,33.6,44.8C620.3,357.5,608.1,365.7,585.8,365.7"/>
<polygon class="st1" points="299.4,353.5 276.3,353.5 273.4,363.5 302.3,363.5 "/>
</svg>
